<svg data-v-fde0c5aa="" xmlns="http://www.w3.org/2000/svg" viewBox="0 0 300 300" class="iconAbove"><!----><defs data-v-fde0c5aa=""><!----></defs><rect data-v-fde0c5aa="" fill="transparent" x="0" y="0" width="300px" height="300px" class="logo-background-square"></rect><defs data-v-fde0c5aa=""><!----></defs><g data-v-fde0c5aa="" id="0ef74308-1db8-422d-93c7-dc902daf4186" fill="#000000" transform="matrix(3.8794391677561872,0,0,3.8794391677561872,14.956729266903032,169.29991180433143)"><path d="M8.61 7.80C9.38 7.80 10.02 8.44 10.02 9.24L10.02 12.56C10.02 12.96 10.37 13.30 10.78 13.30C11.19 13.30 11.52 12.96 11.52 12.56L11.52 9.24C11.52 7.62 10.22 6.30 8.61 6.30C7.73 6.30 6.93 6.66 6.41 7.27C5.88 6.66 5.10 6.30 4.21 6.30C3.68 6.30 3.16 6.45 2.72 6.72C2.60 6.45 2.34 6.30 2.04 6.30C1.64 6.30 1.30 6.62 1.30 7.06L1.30 9.23C1.30 9.23 1.30 9.23 1.30 9.24L1.30 12.56C1.30 12.92 1.57 13.20 1.90 13.29C1.95 13.29 1.99 13.30 2.04 13.30C2.34 13.30 2.62 13.10 2.74 12.85C2.74 12.85 2.74 12.85 2.74 12.85C2.74 12.82 2.74 12.80 2.74 12.78C2.77 12.75 2.77 12.73 2.79 12.70C2.79 12.70 2.79 12.67 2.79 12.66C2.79 12.63 2.80 12.59 2.80 12.56L2.80 12.56L2.80 9.24C2.80 8.44 3.44 7.80 4.21 7.80C5.00 7.80 5.64 8.43 5.66 9.20C5.66 9.21 5.66 9.23 5.66 9.24L5.66 12.56C5.66 12.96 6.02 13.30 6.41 13.30C6.41 13.30 6.41 13.30 6.41 13.30C6.41 13.30 6.41 13.30 6.41 13.30C6.82 13.30 7.15 12.96 7.15 12.56L7.15 9.24C7.15 9.23 7.15 9.21 7.15 9.20C7.18 8.43 7.81 7.80 8.61 7.80ZM20.54 7.06C20.54 6.64 20.20 6.30 19.80 6.30C19.43 6.30 19.15 6.57 19.07 6.92C18.54 6.54 17.91 6.30 17.21 6.30C16.25 6.30 15.43 6.71 14.83 7.35C14.22 7.98 13.87 8.85 13.87 9.81C13.87 10.77 14.22 11.63 14.83 12.28C15.43 12.91 16.25 13.30 17.21 13.30C17.21 13.30 17.21 13.30 17.21 13.30C17.91 13.30 18.54 13.08 19.07 12.70C19.15 13.03 19.43 13.30 19.80 13.30C20.20 13.30 20.54 12.96 20.54 12.56L20.54 9.81C20.54 9.81 20.54 9.81 20.54 9.81C20.54 9.81 20.54 9.81 20.54 9.81L20.54 7.06ZM18.51 11.26C18.17 11.61 17.70 11.80 17.21 11.80C16.70 11.80 16.23 11.61 15.90 11.26C15.57 10.89 15.37 10.39 15.37 9.81C15.37 9.23 15.57 8.72 15.90 8.37C16.23 7.99 16.70 7.80 17.21 7.80C17.70 7.80 18.17 7.99 18.51 8.37C18.84 8.72 19.05 9.23 19.05 9.81C19.05 10.39 18.84 10.89 18.51 11.26ZM26.05 6.30C25.51 6.30 24.99 6.47 24.57 6.73C24.44 6.47 24.18 6.30 23.88 6.30C23.46 6.30 23.14 6.64 23.14 7.04L23.14 9.21C23.14 9.21 23.14 9.21 23.14 9.21L23.14 12.56C23.14 12.96 23.46 13.30 23.88 13.30C24.25 13.30 24.56 13.03 24.63 12.70C24.65 12.64 24.65 12.60 24.65 12.56L24.65 12.56L24.65 9.21C24.65 8.43 25.27 7.80 26.05 7.80C26.85 7.80 27.51 8.43 27.51 9.21L27.51 12.56C27.51 12.96 27.86 13.30 28.25 13.30C28.66 13.30 28.98 12.96 28.98 12.56L28.98 9.21C28.98 7.63 27.68 6.30 26.05 6.30ZM37.65 7.06C37.65 6.64 37.31 6.30 36.90 6.30C36.54 6.30 36.26 6.57 36.18 6.92C35.64 6.54 35.01 6.30 34.31 6.30C33.36 6.30 32.54 6.71 31.93 7.35C31.33 7.98 30.98 8.85 30.98 9.81C30.98 10.77 31.33 11.63 31.93 12.28C32.54 12.91 33.36 13.30 34.31 13.30C34.31 13.30 34.31 13.30 34.31 13.30C35.01 13.30 35.64 13.08 36.18 12.70C36.26 13.03 36.54 13.30 36.90 13.30C37.31 13.30 37.65 12.96 37.65 12.56L37.65 9.81C37.65 9.81 37.65 9.81 37.65 9.81C37.65 9.81 37.65 9.81 37.65 9.81L37.65 7.06ZM35.62 11.26C35.28 11.61 34.80 11.80 34.31 11.80C33.81 11.80 33.33 11.61 33.01 11.26C32.68 10.89 32.48 10.39 32.48 9.81C32.48 9.23 32.68 8.72 33.01 8.37C33.33 7.99 33.81 7.80 34.31 7.80C34.80 7.80 35.28 7.99 35.62 8.37C35.95 8.72 36.16 9.23 36.16 9.81C36.16 10.39 35.95 10.89 35.62 11.26ZM47.14 9.83C47.14 9.83 47.14 9.83 47.14 9.83L47.14 7.04C47.14 6.64 46.82 6.30 46.40 6.30C46.03 6.30 45.72 6.55 45.65 6.89C45.15 6.52 44.51 6.30 43.78 6.30C42.85 6.30 42 6.71 41.40 7.34C40.80 7.99 40.42 8.86 40.42 9.83C40.42 10.81 40.80 11.68 41.40 12.29C42 12.95 42.85 13.36 43.78 13.36C43.78 13.36 43.78 13.36 43.78 13.36C44.46 13.36 45.11 13.15 45.61 12.80C45.43 13.65 44.69 14.29 43.78 14.29C43.48 14.29 43.22 14.22 42.98 14.10C42.59 13.93 42.15 14.07 41.97 14.45C41.78 14.83 41.94 15.29 42.31 15.46C42.74 15.68 43.26 15.81 43.78 15.81C45.64 15.81 47.14 14.28 47.14 12.45L47.14 9.84C47.14 9.84 47.14 9.83 47.14 9.83ZM45.11 11.27C44.74 11.65 44.31 11.84 43.78 11.84C43.29 11.84 42.83 11.65 42.49 11.27C42.15 10.95 41.93 10.42 41.93 9.83C41.93 9.27 42.15 8.74 42.49 8.40C42.83 8.01 43.29 7.80 43.78 7.80C44.31 7.80 44.74 8.01 45.11 8.40C45.42 8.74 45.64 9.27 45.64 9.83C45.64 10.42 45.42 10.95 45.11 11.27ZM53.05 13.30C54.04 13.30 54.87 13.01 55.55 12.38C55.87 12.08 55.73 11.66 55.55 11.47C55.37 11.24 54.80 11.20 54.50 11.51C54.15 11.77 53.55 11.90 53.05 11.86C52.56 11.82 52.00 11.56 51.70 11.23C51.45 10.99 51.30 10.63 51.23 10.30L55.68 10.30C56.07 10.30 56.36 10.08 56.41 9.74C56.42 9.72 56.42 9.65 56.42 9.62C56.42 9.62 56.42 9.62 56.42 9.62C56.42 9.62 56.42 9.62 56.42 9.62C56.42 9.59 56.42 9.56 56.42 9.55C56.31 7.66 54.87 6.30 53.05 6.30C51.13 6.30 49.64 7.90 49.63 9.80C49.64 11.70 51.13 13.29 53.05 13.30ZM53.05 7.63C54.26 7.73 54.98 8.55 55.12 9.11L51.16 9.11C51.27 8.54 51.86 7.69 53.05 7.63ZM58.74 4.27L58.74 12.53C58.74 12.95 59.09 13.30 59.51 13.30C59.95 13.30 60.30 12.95 60.30 12.53L60.30 4.27C60.30 3.85 59.95 3.50 59.51 3.50C59.09 3.50 58.74 3.85 58.74 4.27ZM67.56 6.30C67.14 6.30 66.84 6.62 66.84 7.04L66.84 10.35C66.84 11.16 66.19 11.77 65.39 11.77C64.60 11.77 63.94 11.16 63.94 10.35L63.94 7.04C63.94 6.62 63.63 6.30 63.20 6.30C62.82 6.30 62.47 6.62 62.47 7.04L62.47 10.35C62.47 11.96 63.78 13.29 65.39 13.29C65.86 13.29 66.33 13.17 66.72 12.95C66.50 13.68 65.80 14.21 64.97 14.22C64.69 14.22 64.43 14.15 64.16 14.03C63.83 13.85 63.35 14 63.17 14.34C63 14.73 63.14 15.16 63.53 15.33C63.95 15.54 64.47 15.68 64.97 15.68C66.84 15.68 68.32 14.21 68.32 12.33L68.32 10.35C68.32 10.35 68.32 10.35 68.32 10.35L68.32 7.04C68.32 6.62 67.97 6.30 67.56 6.30Z"></path></g><defs data-v-fde0c5aa=""><linearGradient data-v-fde0c5aa="" gradientTransform="rotate(25)" id="8e70c6ee-0f33-4bf6-a7cc-3682ad758d5f" x1="0%" y1="0%" x2="100%" y2="0%"><stop data-v-fde0c5aa="" offset="0%" stop-color="#4B279B" stop-opacity="1"></stop><stop data-v-fde0c5aa="" offset="100%" stop-color="#DF99D8" stop-opacity="1"></stop></linearGradient></defs><g data-v-fde0c5aa="" id="4f4cd074-7689-4714-b536-1de3c2f64134" stroke="none" fill="url(#8e70c6ee-0f33-4bf6-a7cc-3682ad758d5f)" transform="matrix(2.984743611434758,0,0,2.984743611434758,102.24410221704387,69.36615332556582)"><path d="M15.965 16.258l.707-.707 10.39 10.39-.707.707z"></path><path d="M4.935 26.357L26.018 5.274l.707.707L5.642 27.065z"></path><path d="M31 1v4.194h-4.194V1H31m1-1h-6.194v6.194H32V0zM31 26.806V31h-4.194v-4.194H31m1-1h-6.194V32H32v-6.194zM5.194 26.806V31H1v-4.194h4.194m1-1H0V32h6.194v-6.194z"></path></g><!----></svg>